<mxfile host="Electron" agent="Mozilla/5.0 (Windows NT 10.0; Win64; x64) AppleWebKit/537.36 (KHTML, like Gecko) draw.io/26.0.16 Chrome/132.0.6834.196 Electron/34.2.0 Safari/537.36" version="26.0.16">
  <diagram name="Page-1" id="JD7n8qFyjF1Ccig1W6Bh">
    <mxGraphModel dx="1434" dy="844" grid="1" gridSize="10" guides="1" tooltips="1" connect="1" arrows="1" fold="1" page="1" pageScale="1" pageWidth="850" pageHeight="1100" math="0" shadow="0">
      <root>
        <mxCell id="0" />
        <mxCell id="1" parent="0" />
        <mxCell id="6KPauGABci93UEvNpiDp-9" value="Package" style="shape=folder;fontStyle=1;tabWidth=110;tabHeight=30;tabPosition=left;html=1;boundedLbl=1;labelInHeader=1;container=1;collapsible=0;whiteSpace=wrap;" parent="1" vertex="1">
          <mxGeometry x="80" y="300" width="150" height="100" as="geometry" />
        </mxCell>
        <mxCell id="6KPauGABci93UEvNpiDp-10" value="&lt;div&gt;DataAccess&lt;/div&gt;" style="html=1;strokeColor=none;resizeWidth=1;resizeHeight=1;fillColor=none;part=1;connectable=0;allowArrows=0;deletable=0;whiteSpace=wrap;" parent="6KPauGABci93UEvNpiDp-9" vertex="1">
          <mxGeometry width="150" height="70" relative="1" as="geometry">
            <mxPoint y="30" as="offset" />
          </mxGeometry>
        </mxCell>
        <mxCell id="6KPauGABci93UEvNpiDp-12" value="Package" style="shape=folder;fontStyle=1;tabWidth=110;tabHeight=30;tabPosition=left;html=1;boundedLbl=1;labelInHeader=1;container=1;collapsible=0;whiteSpace=wrap;" parent="1" vertex="1">
          <mxGeometry x="340" y="520" width="150" height="100" as="geometry" />
        </mxCell>
        <mxCell id="6KPauGABci93UEvNpiDp-13" value="Model" style="html=1;strokeColor=none;resizeWidth=1;resizeHeight=1;fillColor=none;part=1;connectable=0;allowArrows=0;deletable=0;whiteSpace=wrap;" parent="6KPauGABci93UEvNpiDp-12" vertex="1">
          <mxGeometry width="150" height="70" relative="1" as="geometry">
            <mxPoint y="30" as="offset" />
          </mxGeometry>
        </mxCell>
        <mxCell id="6KPauGABci93UEvNpiDp-14" value="DB" style="shape=cylinder3;whiteSpace=wrap;html=1;boundedLbl=1;backgroundOutline=1;size=15;" parent="1" vertex="1">
          <mxGeometry x="125" y="760" width="60" height="80" as="geometry" />
        </mxCell>
        <mxCell id="6KPauGABci93UEvNpiDp-17" value="" style="endArrow=open;dashed=1;html=1;dashPattern=1 3;strokeWidth=2;rounded=0;endFill=0;endSize=10;" parent="1" source="7MJY9Lo1yT0wz2p84eKt-1" target="6KPauGABci93UEvNpiDp-14" edge="1">
          <mxGeometry width="50" height="50" relative="1" as="geometry">
            <mxPoint x="510" y="340" as="sourcePoint" />
            <mxPoint x="560" y="290" as="targetPoint" />
            <Array as="points" />
          </mxGeometry>
        </mxCell>
        <mxCell id="7MJY9Lo1yT0wz2p84eKt-1" value="Package" style="shape=folder;fontStyle=1;tabWidth=110;tabHeight=30;tabPosition=left;html=1;boundedLbl=1;labelInHeader=1;container=1;collapsible=0;whiteSpace=wrap;" vertex="1" parent="1">
          <mxGeometry x="80" y="520" width="150" height="100" as="geometry" />
        </mxCell>
        <mxCell id="7MJY9Lo1yT0wz2p84eKt-2" value="Connection" style="html=1;strokeColor=none;resizeWidth=1;resizeHeight=1;fillColor=none;part=1;connectable=0;allowArrows=0;deletable=0;whiteSpace=wrap;" vertex="1" parent="7MJY9Lo1yT0wz2p84eKt-1">
          <mxGeometry width="150" height="70" relative="1" as="geometry">
            <mxPoint y="30" as="offset" />
          </mxGeometry>
        </mxCell>
        <mxCell id="7MJY9Lo1yT0wz2p84eKt-3" value="Package" style="shape=folder;fontStyle=1;tabWidth=110;tabHeight=30;tabPosition=left;html=1;boundedLbl=1;labelInHeader=1;container=1;collapsible=0;whiteSpace=wrap;" vertex="1" parent="1">
          <mxGeometry x="590" y="150" width="150" height="100" as="geometry" />
        </mxCell>
        <mxCell id="7MJY9Lo1yT0wz2p84eKt-4" value="Logic&lt;div&gt;&lt;br&gt;&lt;/div&gt;" style="html=1;strokeColor=none;resizeWidth=1;resizeHeight=1;fillColor=none;part=1;connectable=0;allowArrows=0;deletable=0;whiteSpace=wrap;" vertex="1" parent="7MJY9Lo1yT0wz2p84eKt-3">
          <mxGeometry width="150" height="70" relative="1" as="geometry">
            <mxPoint y="30" as="offset" />
          </mxGeometry>
        </mxCell>
        <mxCell id="7MJY9Lo1yT0wz2p84eKt-6" value="Package" style="shape=folder;fontStyle=1;tabWidth=110;tabHeight=30;tabPosition=left;html=1;boundedLbl=1;labelInHeader=1;container=1;collapsible=0;whiteSpace=wrap;" vertex="1" parent="1">
          <mxGeometry x="580" y="520" width="150" height="100" as="geometry" />
        </mxCell>
        <mxCell id="7MJY9Lo1yT0wz2p84eKt-7" value="Validators&lt;div&gt;&lt;br&gt;&lt;/div&gt;" style="html=1;strokeColor=none;resizeWidth=1;resizeHeight=1;fillColor=none;part=1;connectable=0;allowArrows=0;deletable=0;whiteSpace=wrap;" vertex="1" parent="7MJY9Lo1yT0wz2p84eKt-6">
          <mxGeometry width="150" height="70" relative="1" as="geometry">
            <mxPoint y="30" as="offset" />
          </mxGeometry>
        </mxCell>
        <mxCell id="7MJY9Lo1yT0wz2p84eKt-13" value="" style="endArrow=classic;html=1;rounded=0;" edge="1" parent="1" source="6KPauGABci93UEvNpiDp-12" target="6KPauGABci93UEvNpiDp-9">
          <mxGeometry width="50" height="50" relative="1" as="geometry">
            <mxPoint x="300" y="540" as="sourcePoint" />
            <mxPoint x="350" y="490" as="targetPoint" />
          </mxGeometry>
        </mxCell>
        <mxCell id="7MJY9Lo1yT0wz2p84eKt-15" value="" style="endArrow=classic;html=1;rounded=0;" edge="1" parent="1" source="6KPauGABci93UEvNpiDp-12" target="7MJY9Lo1yT0wz2p84eKt-3">
          <mxGeometry width="50" height="50" relative="1" as="geometry">
            <mxPoint x="540" y="560" as="sourcePoint" />
            <mxPoint x="590" y="510" as="targetPoint" />
          </mxGeometry>
        </mxCell>
        <mxCell id="7MJY9Lo1yT0wz2p84eKt-17" value="" style="endArrow=classic;html=1;rounded=0;" edge="1" parent="1" source="6KPauGABci93UEvNpiDp-12" target="7MJY9Lo1yT0wz2p84eKt-6">
          <mxGeometry width="50" height="50" relative="1" as="geometry">
            <mxPoint x="540" y="610" as="sourcePoint" />
            <mxPoint x="590" y="560" as="targetPoint" />
          </mxGeometry>
        </mxCell>
        <mxCell id="7MJY9Lo1yT0wz2p84eKt-18" value="" style="endArrow=classic;html=1;rounded=0;" edge="1" parent="1" source="7MJY9Lo1yT0wz2p84eKt-6" target="7MJY9Lo1yT0wz2p84eKt-3">
          <mxGeometry width="50" height="50" relative="1" as="geometry">
            <mxPoint x="640" y="510" as="sourcePoint" />
            <mxPoint x="690" y="460" as="targetPoint" />
          </mxGeometry>
        </mxCell>
        <mxCell id="7MJY9Lo1yT0wz2p84eKt-19" value="Package" style="shape=folder;fontStyle=1;tabWidth=110;tabHeight=30;tabPosition=left;html=1;boundedLbl=1;labelInHeader=1;container=1;collapsible=0;whiteSpace=wrap;" vertex="1" parent="1">
          <mxGeometry x="340" y="340" width="150" height="100" as="geometry" />
        </mxCell>
        <mxCell id="7MJY9Lo1yT0wz2p84eKt-20" value="&lt;div&gt;Presentation&lt;/div&gt;" style="html=1;strokeColor=none;resizeWidth=1;resizeHeight=1;fillColor=none;part=1;connectable=0;allowArrows=0;deletable=0;whiteSpace=wrap;" vertex="1" parent="7MJY9Lo1yT0wz2p84eKt-19">
          <mxGeometry width="150" height="70" relative="1" as="geometry">
            <mxPoint y="30" as="offset" />
          </mxGeometry>
        </mxCell>
        <mxCell id="7MJY9Lo1yT0wz2p84eKt-21" value="" style="endArrow=classic;html=1;rounded=0;" edge="1" parent="1" source="7MJY9Lo1yT0wz2p84eKt-19" target="7MJY9Lo1yT0wz2p84eKt-3">
          <mxGeometry width="50" height="50" relative="1" as="geometry">
            <mxPoint x="490" y="322" as="sourcePoint" />
            <mxPoint x="810" y="310" as="targetPoint" />
          </mxGeometry>
        </mxCell>
        <mxCell id="7MJY9Lo1yT0wz2p84eKt-22" value="" style="endArrow=classic;html=1;rounded=0;" edge="1" parent="1" source="6KPauGABci93UEvNpiDp-12" target="7MJY9Lo1yT0wz2p84eKt-19">
          <mxGeometry width="50" height="50" relative="1" as="geometry">
            <mxPoint x="805" y="580" as="sourcePoint" />
            <mxPoint x="760" y="520" as="targetPoint" />
          </mxGeometry>
        </mxCell>
        <mxCell id="7MJY9Lo1yT0wz2p84eKt-27" value="Package" style="shape=folder;fontStyle=1;tabWidth=110;tabHeight=30;tabPosition=left;html=1;boundedLbl=1;labelInHeader=1;container=1;collapsible=0;whiteSpace=wrap;" vertex="1" parent="1">
          <mxGeometry x="340" y="90" width="150" height="100" as="geometry" />
        </mxCell>
        <mxCell id="7MJY9Lo1yT0wz2p84eKt-28" value="&lt;div&gt;Main&lt;/div&gt;&lt;div&gt;&lt;br&gt;&lt;/div&gt;" style="html=1;strokeColor=none;resizeWidth=1;resizeHeight=1;fillColor=none;part=1;connectable=0;allowArrows=0;deletable=0;whiteSpace=wrap;" vertex="1" parent="7MJY9Lo1yT0wz2p84eKt-27">
          <mxGeometry width="150" height="70" relative="1" as="geometry">
            <mxPoint y="30" as="offset" />
          </mxGeometry>
        </mxCell>
        <mxCell id="7MJY9Lo1yT0wz2p84eKt-29" value="" style="endArrow=classic;startArrow=classic;html=1;rounded=0;" edge="1" parent="1" source="7MJY9Lo1yT0wz2p84eKt-27" target="7MJY9Lo1yT0wz2p84eKt-19">
          <mxGeometry width="50" height="50" relative="1" as="geometry">
            <mxPoint x="280" y="470" as="sourcePoint" />
            <mxPoint x="330" y="420" as="targetPoint" />
          </mxGeometry>
        </mxCell>
        <mxCell id="7MJY9Lo1yT0wz2p84eKt-30" value="" style="endArrow=classic;startArrow=classic;html=1;rounded=0;" edge="1" parent="1" source="6KPauGABci93UEvNpiDp-9" target="7MJY9Lo1yT0wz2p84eKt-3">
          <mxGeometry width="50" height="50" relative="1" as="geometry">
            <mxPoint x="360" y="260" as="sourcePoint" />
            <mxPoint x="410" y="210" as="targetPoint" />
          </mxGeometry>
        </mxCell>
        <mxCell id="7MJY9Lo1yT0wz2p84eKt-31" value="" style="endArrow=classic;html=1;rounded=0;" edge="1" parent="1" source="6KPauGABci93UEvNpiDp-9" target="7MJY9Lo1yT0wz2p84eKt-1">
          <mxGeometry width="50" height="50" relative="1" as="geometry">
            <mxPoint x="150" y="510" as="sourcePoint" />
            <mxPoint x="200" y="460" as="targetPoint" />
          </mxGeometry>
        </mxCell>
      </root>
    </mxGraphModel>
  </diagram>
</mxfile>
